<?xml version="1.0" encoding="UTF-8" standalone="no"?>
<!-- Created with Inkscape (http://www.inkscape.org/) -->

<svg
   width="275.52551mm"
   height="358.22699mm"
   viewBox="0 0 275.52552 358.22698"
   version="1.1"
   id="svg1"
   xml:space="preserve"
   sodipodi:docname="shapeBG.svg"
   inkscape:export-filename="shapeBG-opacity12.svg"
   inkscape:export-xdpi="96"
   inkscape:export-ydpi="96"
   xmlns:inkscape="http://www.inkscape.org/namespaces/inkscape"
   xmlns:sodipodi="http://sodipodi.sourceforge.net/DTD/sodipodi-0.dtd"
   xmlns="http://www.w3.org/2000/svg"
   xmlns:svg="http://www.w3.org/2000/svg"><sodipodi:namedview
     id="namedview1"
     pagecolor="#ffffff"
     bordercolor="#000000"
     borderopacity="0.25"
     inkscape:showpageshadow="2"
     inkscape:pageopacity="0.0"
     inkscape:pagecheckerboard="0"
     inkscape:deskcolor="#d1d1d1"
     inkscape:document-units="mm" /><defs
     id="defs1"><inkscape:path-effect
       effect="bend_path"
       id="path-effect75"
       is_visible="true"
       lpeversion="1"
       bendpath="m 54.125969,6.2213148 c 0,0 -117.742056,22.9936712 -88.910495,103.0964252 37.8081435,105.0424 210.579606,-35.559837 242.025276,65.12962 22.21684,71.13861 -68.55804,136.75235 -162.952759,79.78599 -93.269135,-56.28708 -129.693802,114.74745 0.677405,117.24993"
       prop_scale="0.91470637"
       scale_y_rel="false"
       vertical="false"
       hide_knot="false"
       bendpath-nodetypes="csssc" /></defs><g
     inkscape:label="Layer 1"
     inkscape:groupmode="layer"
     id="layer1"
     transform="translate(50.818886,-11.129874)"><path
       id="path59-2"
       style="fill:#506e86;fill-opacity:0.12;stroke-width:0.192079;paint-order:stroke fill markers"
       d="m -7.3466825,336.93268 c -1.1764458,-1.12891 -2.3138121,-2.3314 -3.3900975,-3.60922 -4.444707,-5.15282 -8.244397,-11.79579 -10.411488,-19.406 -1.849001,-6.47544 -2.549063,-13.73655 -1.676818,-21.06998 0.809377,-6.44573 2.713367,-12.94765 6.029177,-18.45986 2.958974,-4.86539 6.8920558,-9.25448 11.4778317,-11.77361 4.43809397,-2.70003 10.3691313,-3.90786 16.3417053,-3.59776 7.922768,0.25973 16.456334,3.83018 25.11694,8.71759 22.588275,13.52327 48.717577,22.31191 76.028002,23.19523 22.77731,0.69191 45.2915,-4.71528 64.60918,-15.83843 18.24906,-10.49341 32.47595,-26.12136 40.70631,-44.2855 7.09658,-16.16935 8.54792,-33.12736 6.15367,-48.2882 -0.65847,-4.16957 -1.61988,-8.27898 -2.87523,-12.29247 -2.0751,-6.7502 -5.08161,-13.45198 -9.22459,-19.76084 -3.65764,-5.52552 -8.2285,-10.47799 -13.58134,-14.60278 -5.21019,-3.95544 -10.86055,-6.94438 -16.65587,-9.02859 -6.10529,-2.18821 -12.20939,-3.50412 -18.1063,-4.19191 -13.41392,-1.53654 -26.27333,-0.68514 -38.0354,0.83797 -13.51371,1.68309 -26.703555,4.21643 -39.002401,6.53051 -13.084852,2.4432 -25.312268,4.73948 -37.473867,6.11672 -11.48364,1.24616 -22.233318,1.85912 -32.242752,0.44767 -4.594093,-0.63286 -8.9374727,-1.59668 -12.885258,-3.07211 0,0 -1.02e-5,-1e-5 -1.02e-5,-1e-5 -3.86123781,-1.43469 -7.4528134,-3.30813 -10.5501877,-5.62221 1.2e-6,0 -9e-6,-1e-5 -9e-6,-1e-5 -3.3156711,-2.4339 -6.2700411,-5.51327 -8.7730771,-8.9461 -2.972525,-4.04457 -5.323134,-8.80145 -7.253616,-13.84869 -2.800123,-7.643706 -4.465072,-15.304833 -4.115199,-22.520169 0.06923,-1.997528 0.285828,-3.994937 0.63976,-5.96847 0.505725,-2.819942 1.596698,-7.045146 3.977427,-11.691551 2.433857,-4.839521 6.147272,-9.812786 11.343367,-14.889745 1e-6,10e-7 4e-6,-3e-6 4e-6,-3e-6 C -6.527955,45.495071 -1.0769063,41.456922 4.9396894,37.71906 17.091119,30.145282 29.824714,25.224372 39.376278,21.92462 c 1.379443,-0.399204 2.67486,-0.777393 3.875775,-1.131881 26.296741,-7.762333 7.054249,-7.643624 -2.64268,-9.109887 -1.452147,-0.219577 -2.923925,-0.388472 -4.413199,-0.510964 -12.967271,-0.517272 -27.2251837,3.77306 -40.6535172,11.149431 -7.0734408,3.890957 -13.7087068,8.59492 -19.8321258,14.003205 -0.912879,0.80443 -1.810327,1.624594 -2.692114,2.459666 -5.104273,4.833859 -9.706071,10.431473 -13.402264,16.825833 0,0 -1.6e-5,2.9e-5 -1.6e-5,2.9e-5 -4.465206,7.794919 -7.299523,16.593839 -8.156286,25.767636 -0.936223,10.817383 0.663947,21.553312 3.914611,31.482152 0,0 10e-6,3e-5 10e-6,3e-5 2.146112,6.76167 5.164163,13.48384 9.302426,19.82056 0,0 1.9e-5,3e-5 1.9e-5,3e-5 3.607789,5.49537 8.088477,10.52747 13.378568,14.81318 5.039142,4.04433 10.610325,7.27658 16.4640996,9.67636 5.99561904,2.45074 12.1375988,4.10057 18.2236984,5.1184 0,0 3.2e-5,0 3.2e-5,0 13.300695,2.19499 26.413556,2.01227 38.836157,0.9182 -2e-6,0 3.1e-5,0 3.1e-5,0 13.609558,-1.14048 26.813606,-3.21384 39.655093,-5.28915 0,0 2.8e-5,0 2.8e-5,0 12.811136,-2.05226 25.242736,-4.15592 37.402756,-5.38745 11.0042,-1.05045 21.42042,-1.64725 30.89515,-0.23698 4.15783,0.60678 8.03183,1.47249 11.43167,2.80903 0,0 2e-5,1e-5 2e-5,1e-5 3.21036,1.25535 6.14895,2.83968 8.54531,4.77557 0,0 10e-6,1e-5 10e-6,1e-5 2.52745,1.9702 4.77593,4.53764 6.65492,7.41244 0,0 1e-5,2e-5 1e-5,2e-5 2.25626,3.39247 3.96992,7.53739 5.39164,12.05563 3.88427,12.7273 3.10623,27.10955 -2.28234,38.78041 -5.3527,12.29507 -15.8599,22.73857 -28.00416,29.90224 -14.13322,8.31795 -31.25593,11.95722 -48.00957,11.62224 -18.044999,-0.31181 -36.079228,-5.72226 -52.560241,-13.93666 -2.914618,-1.45269 -5.757271,-2.97806 -8.519839,-4.5578 -11.779636,-7.09565 -25.012706,-11.72013 -38.930747,-12.64841 -11.9601464,-0.68205 -23.513744,2.25491 -33.275522,7.97595 -9.880045,6.02042 -17.065927,14.2639 -21.76881,22.88237 -5.473132,9.98704 -8.101086,20.40398 -8.800131,30.03792 -0.876468,11.60214 0.888546,22.40229 4.152,31.67569 4.119545,11.70242 10.688238,21.02596 17.716507,27.86059 10.403305,10.04853 22.0476587,15.14826 31.0658162,17.63009 10.9630618,3.00593 20.3812188,3.03479 26.2556398,2.56117 6.134294,-0.49457 10.231532,-1.6577 12.157267,-2.51242 5.429972,-2.41006 4.847711,-4.83959 2.917088,-6.56844 -1.935606,-1.73332 -5.668668,-3.22334 -7.184409,-3.73779 C 33.319063,355.2385 22.823152,354.36601 10.046954,348.45041 4.4256854,345.874 -1.917232,342.14273 -7.3466825,336.93268 Z M -26.507373,313.88463 c 0.107785,0.4319 0.233465,0.9158 0.378555,1.44307 0.873266,3.17967 1.948088,6.11421 3.319903,9.27339 1.140785,2.62713 2.1255,4.58894 1.09803,3.44966 -2.123714,-2.3548 -3.64193,-5.58537 -4.970566,-8.8523 -0.447771,-1.10095 -0.863985,-2.22212 -1.246121,-3.36144 -2.506415,-7.46817 -3.573346,-15.70489 -2.884542,-23.97992 0.668531,-7.75733 2.790403,-15.36251 6.527138,-21.96951 3.644022,-6.41822 8.647847,-11.80057 14.5316057,-15.15322 3.3467599,-1.97148 7.0352491,-3.26805 10.7651498,-3.97514 3.8806186,-0.73565 7.5308548,-0.77543 10.6486625,-0.4725 8.116049,0.72472 14.548388,3.96501 17.465517,5.64727 3.310945,1.90937 4.910825,3.40513 5.305392,3.84085 1.143277,1.26251 -1.036353,0.0826 -1.036353,0.0826 0,0 -9.149637,-5.79424 -21.970249,-6.33983 -6.28206,-0.33643 -13.4476636,0.79455 -19.4261318,4.32929 -5.0868132,2.8448 -9.4095142,7.33916 -12.7365602,12.41984 -0.276299,0.42193 -0.543582,0.84566 -0.801938,1.27032 0,0 -10e-7,0 -10e-7,0 -4.167323,6.89369 -5.982948,14.43515 -6.662197,20.64368 -0.94139,8.93411 0.404275,16.53284 1.694706,21.70389 z M 190.42337,138.94698 c 1.1095,0.71987 2.22972,1.50516 3.34904,2.36136 4.38475,3.38326 8.52096,7.70708 11.99005,12.9853 3.59763,5.49898 6.3252,11.5757 8.28572,18.02773 0,0 0,0 0,0 6.13029,19.97875 3.63095,39.8892 -3.42503,55.40016 -7.14365,15.44659 -16.03704,23.29711 -16.03704,23.29711 0,0 -2.61152,2.76883 -1.73354,1.03283 -0.005,-0.0891 0.0131,-0.21582 0.0904,-0.44421 0.3133,-0.92612 1.0749,-2.32221 3.4306,-6.44543 1.7543,-3.07057 6.23684,-10.7222 9.45964,-19.59313 0.22206,-0.61389 0.44138,-1.24306 0.65681,-1.88736 5.05097,-15.10593 5.67555,-32.56862 0.13409,-49.0414 -1.91771,-5.69614 -4.41076,-11.07149 -7.67758,-15.8263 -0.69276,-1.009 -1.41892,-1.9861 -2.17589,-2.92837 -1.76441,-2.19623 -3.94645,-4.21597 -5.71087,-6.4122 -0.67784,-0.84588 0.73294,-0.18578 3.10657,1.77036 2.46779,2.03376 4.61562,4.39298 6.29868,6.56322 0.11369,0.14667 0.22135,0.28732 0.32271,0.42109 2.78395,3.67402 5.6724,8.78394 8.17687,15.68126 2.17412,5.97679 4.10135,13.66633 4.62026,22.67703 0.59822,10.38758 -1.04211,20.76678 -4.73814,30.33709 0,0 -0.0162,0.0413 -0.0162,0.0413 0,1e-5 0.0177,-0.0406 0.0177,-0.0406 3.52919,-8.1967 7.10762,-20.69494 5.95783,-36.08737 -0.44019,-5.89282 -1.56652,-11.84528 -3.4378,-17.67812 -1.87953,-5.89127 -4.49822,-11.77313 -8.12936,-17.1912 -3.07172,-4.57089 -6.89599,-8.72782 -11.39159,-12.15245 -4.25862,-3.22718 -9.01031,-5.73283 -14.00057,-7.53606 -5.17306,-1.86719 -10.52513,-3.02275 -15.88195,-3.68144 -12.019,-1.4702 -24.03015,-0.7624 -35.65417,0.49975 -9.73923,1.04273 -19.40545,2.50048 -28.748728,3.91596 -3.272151,0.49572 -6.622357,1.06915 -9.856399,1.50877 -2.699869,0.36577 -5.312786,0.64044 -7.740814,0.70624 -2.625615,0.0712 1.495325,-0.94175 7.4663,-2.21497 6.612157,-1.4148 13.624961,-2.77228 18.737001,-3.68267 6.25924,-1.11468 12.93723,-2.20008 19.80381,-3.06324 10.81916,-1.38782 23.4241,-2.37812 36.38565,-0.8494 5.37425,0.63995 10.99947,1.821 16.59262,3.84348 3.9084,1.41597 7.78497,3.2928 11.47329,5.68589 z M -4.7418455,36.129118 c -3.6309043,2.563392 -7.4710945,5.546158 -11.1105195,9.003757 -2.878621,2.74017 -6.12916,6.229231 -9.042496,10.417975 -1.364174,1.96139 -2.635714,4.010041 -3.775393,6.153373 0,1e-6 0,2e-6 0,2e-6 -3.703912,6.91888 -5.575002,14.00249 -6.149117,20.433928 -0.735148,7.870523 0.35472,13.504974 0.35472,13.504974 0,0 -0.313421,-0.03206 -0.869479,-1.740339 -0.412661,-1.267745 -1.565493,-5.554167 -1.265723,-11.863319 0.01523,-0.338044 0.03491,-0.684413 0.05957,-1.038822 0.502262,-7.550834 2.63147,-14.530576 5.658581,-20.446968 3.24654,-6.36549 7.809678,-12.158688 13.220946,-17.308766 4.929683,-4.687464 10.7971831,-9.059283 17.77946712,-13.171327 0.038054,-0.02241 0.0760963,-0.04476 0.11412624,-0.06705 C 10.071139,24.235955 18.645158,22.573015 18.645158,22.573015 10.798154,26.419334 4.8239856,29.868028 2.3362662,31.430016 c -0.2996079,0.188116 -0.5966144,0.375869 -0.8909804,0.563202 -2.15542784,1.369874 -4.2238094,2.749793 -6.1871418,4.135885 3.5e-6,5e-6 7e-6,10e-6 1.05e-5,1.5e-5 z M -34.272592,281.46693 c -0.323175,1.08527 -0.849278,3.00984 -1.280559,4.50445 -0.426911,1.47945 -0.800928,2.56915 -1.022029,1.8322 -0.434868,-1.44948 -0.133002,-3.05858 0.07507,-4.60259 0.789252,-5.85832 2.44198,-11.83588 5.266025,-17.48899 3.107385,-6.22128 7.436768,-11.5071 12.551793,-15.26592 1.732724,-1.2733 3.381529,-2.22775 4.861884,-2.93716 6.7576084,-3.2246 9.7056254,-2.10893 10.368612,-1.78866 0.802235,0.38759 -0.2076293,0.62503 -0.2076293,0.62503 0,0 -3.8681793,1.06542 -8.6009157,3.93522 -5.072527,3.05036 -9.733217,7.3493 -13.785245,12.85142 -1.024414,1.39103 -1.906027,2.77012 -2.66464,4.0966 0,0 0,0 0,0 -3.251727,5.69243 -4.658681,11.20384 -5.562362,14.2384 z M -0.01816426,27.765569 c -0.23599334,0.148659 -0.50864825,0.31418 -0.81380595,0.496195 -2.46871609,1.47227 -6.25677319,3.5803 -10.25739279,6.551466 -2.691438,1.998869 -5.439983,4.284518 -8.101602,6.834142 -3.306942,3.168027 -5.904767,6.203018 -7.941056,8.911928 -1.721983,2.290709 -3.749773,5.338178 -5.647592,9.006958 -2.314363,4.472268 -3.705383,8.779355 -3.949434,8.442075 -0.273033,-0.377322 0.772283,-4.612002 2.819311,-9.030041 1.618712,-3.489556 3.495083,-6.469051 5.02643,-8.595008 2.547468,-3.536643 5.542135,-6.727134 8.808237,-9.658919 2.564091,-2.302489 5.351843,-4.507398 8.339268,-6.664628 3.3223581,-2.399078 7.3400897,-4.968453 10.4963867,-6.465601 1.28952986,-0.611651 2.15381665,-0.894775 2.22586025,-0.660455 0.037963,0.123568 -0.3334644,0.409168 -1.00458668,0.831927 z M 8.9712291,237.71781 c -2.5409333,-0.0264 -5.0231057,0.0917 -7.6517905,0.33203 -4.7479098,0.43425 -8.3506588,2.03744 -10.2990084,2.58586 -1.1744312,0.3304 -4.0112292,1.19991 -3.6055672,0.37041 0.437967,-0.8956 1.250807,-1.22087 1.982785,-1.64097 5.9590754,-3.42056 12.9009203,-5.57911 19.3410615,-5.16638 1.6626075,0.10654 3.0042145,0.39993 4.0405925,0.7504 2.761786,0.96217 3.499817,2.26325 3.657368,2.7333 0.215804,0.64347 -0.293766,0.49785 -0.293766,0.49785 0,0 -1.420339,-0.17618 -3.575509,-0.32628 -1.066448,-0.0699 -2.267777,-0.12213 -3.5961676,-0.1359 z M 192.9169,234.44773 c -1.94228,2.7714 -3.91819,5.14859 -5.76705,7.12214 -2.2652,2.41794 -5.25637,5.26665 -8.74462,7.90359 -3.29775,2.49292 -5.37499,3.56399 -4.35918,2.47544 2.32976,-2.49664 5.37715,-4.98657 7.98471,-7.6577 6.34728,-6.50219 11.65674,-14.14744 15.10154,-22.63307 5.98716,-14.38523 6.01264,-30.66321 1.60651,-44.55558 -1.44002,-4.47806 -3.1533,-8.57374 -5.26239,-12.19317 -0.35405,-0.6076 -0.71313,-1.19185 -1.07695,-1.75405 -2.64379,-4.11806 -5.52541,-7.19663 -8.15739,-9.43914 -3.74936,-3.23966 -7.90475,-5.4894 -10.31059,-6.72953 -3.92663,-2.0248 -5.9438,-2.88826 -6.60351,-3.31513 -1.46833,-0.95006 1.00135,-0.32419 1.00135,-0.32419 0,0 2.4229,0.42983 6.2679,1.81855 3.13289,1.12946 7.40495,3.02467 11.48885,6.14953 3.28535,2.49226 6.46878,5.79225 9.21856,9.91334 2.88413,4.30419 5.11114,9.30178 6.83708,14.81104 2.00975,6.46827 2.96726,13.17094 2.94272,19.74464 -0.0401,10.74607 -2.47779,19.90486 -5.58568,26.93728 -1.98692,4.56772 -4.31761,8.49538 -6.5818,11.72606 z m -227.177342,26.40734 c -0.172,0.26568 -0.334518,0.51335 -0.489818,0.74661 l -1.78e-4,-1.1e-4 c -0.313861,0.47084 -0.634196,0.95701 -0.948058,1.42785 0,0 0,0 0,0 -0.615292,0.91954 -1.208373,1.77632 -1.146011,1.2736 0.07026,-0.56643 0.306207,-1.10028 0.566499,-1.62182 10e-7,0 10e-7,0 10e-7,0 0.09183,-0.18438 0.213022,-0.41761 0.304855,-0.60199 2.950085,-5.89994 7.019225,-11.33114 12.008128,-15.23447 4.748774,-3.71543 6.873549,-3.63455 7.285912,-3.55974 0.410729,0.0745 -0.07536,0.32785 -0.07536,0.32785 0,0 -1.81729,1.08325 -4.165573,2.851 -2.535923,1.90901 -5.003549,4.09903 -7.485401,6.70086 -2.908569,3.04929 -4.730683,5.95838 -5.855076,7.6903 z"
       inkscape:original-d="m 605.57318,-248.3161 c -103.94868,-0.59496 -308.06812,2.44023 -431.98254,2.58911 -134.32408,0.16139 -248.721911,0.82117 -350.2429,2.37232 -19.66774,0.30051 -87.66687,0.20569 -114.55263,0.83942 -29.9807,0.70668 -9.61765,6.06215 4.7e-4,10.37556 21.66259,9.71495 50.63892,8.59843 76.74395,9.92077 205.4919024,10.40905 426.06062,11.67691 618.77785,8.87319 192.71729,-2.80372 259.16664,-16.20591 270.89723,-22.02901 11.73064,-5.82311 -1.74941,-10.01862 -5.76328,-10.89493 -5.70897,-1.24634 -29.22858,-1.84812 -63.87815,-2.04643 z m -40.79033,5.57613 c 6.56934,0.0311 23.13059,0.16995 19.26463,0.91098 -3.86606,0.74105 -8.46481,0.77244 -12.83531,0.95573 -34.40328,1.44327 -72.73865,2.91322 -104.9251,2.83574 -32.1865,-0.0775 -41.9808,-2.07634 -43.90487,-2.72478 -1.92403,-0.64841 1.0592,-0.59722 1.0592,-0.59722 0,0 45.52472,-0.72177 82.7243,-0.7506 27.46356,-0.0213 46.08818,-0.68923 58.61715,-0.62985 z m -442.16953,4.60245 c 41.19446,-0.0276 123.53911,0.71983 123.53911,0.71983 0,0 3.79492,-0.0684 1.9525,0.57671 -0.06,0.0719 -0.16363,0.15587 -0.38206,0.27017 -1.36185,0.7126 -8.38283,3.1058 -31.89803,4.81737 -23.51522,1.71159 -51.62924,2.26924 -76.86797,2.65205 -3.20626,0.0487 -6.56896,0.25301 -9.44453,-0.25268 -2.87557,-0.50569 9.21727,-1.48024 14.01574,-1.84411 9.15155,-0.69395 22.80719,-1.0085 42.87781,-2.38607 10.50123,-0.72078 21.50775,-1.37125 31.56492,-1.94178 -9.67144,0.14787 -21.18889,0.28604 -37.41798,0.41773 -48.05062,0.3899 -103.779964,1.08762 -155.01569,-0.35992 -6.508837,-0.18389 -13.370791,-0.17988 -19.0811479,-1.04968 -5.7103662,-0.86978 19.0227599,-1.20619 28.8303509,-1.28977 25.312458,-0.21571 53.835672,-0.30742 87.326977,-0.32985 z M -234.316,-235.761 c 9.30372,-0.0383 18.44632,0.0923 32.20224,0.0825 22.55979,-0.0161 49.39848,1.19467 49.39848,1.19467 0,0 -0.43907,1.28091 -16.81116,1.37439 -26.31449,0.2275 -44.93056,0.46312 -72.99793,-0.0193 -12.51482,-0.21513 -22.02132,-2.09726 -22.02132,-2.09726 10.90292,-0.42557 16.18742,-0.34496 20.69541,-0.42892 3.31389,-0.0617 6.43304,-0.0933 9.53428,-0.10606 z m 759.79946,2.23129 c 2.55618,0.0311 9.00047,0.17019 7.49623,0.91121 -1.50433,0.74106 -3.29371,0.77222 -4.99431,0.95551 -13.38659,1.44327 -28.3034,2.91344 -40.82736,2.83597 -12.52406,-0.0775 -16.33499,-2.07635 -17.08371,-2.72478 -0.74862,-0.64842 0.41194,-0.59722 0.41194,-0.59722 0,0 17.71423,-0.72178 32.18893,-0.7506 10.68632,-0.0213 17.93315,-0.68947 22.80828,-0.63009 z m -769.18478,2.63597 c 2.57469,-0.0543 8.34541,0.31079 14.18428,0.38719 7.87963,0.1031 17.99333,0.0539 24.35168,0.0207 6.47385,-0.0337 22.05345,-0.30411 21.58564,0.34476 -0.4796,0.66524 -14.64784,1.22933 -20.61335,1.30329 -8.25987,0.10242 -16.26724,-0.3371 -25.26313,-0.58509 -5.77503,-0.15921 -15.83326,-0.41836 -15.63863,-1.25062 0.0322,-0.13756 0.53527,-0.20218 1.39351,-0.22028 z m 699.91911,6.30855 c 2.35247,0.0115 4.99449,0.0632 7.42653,0.20001 4.78803,0.26925 8.07471,-0.20044 10.25481,-0.009 1.14311,0.10057 4.02137,0.41431 3.30265,1.11308 -0.71872,0.69879 -1.52225,0.68148 -2.29514,0.8182 -6.08374,1.07668 -12.85443,2.13839 -18.4597,1.72056 -5.60527,-0.41782 -7.19116,-2.51664 -7.48712,-3.18423 -0.29609,-0.66758 0.22072,-0.58487 0.22072,-0.58487 0,0 3.11648,-0.0932 7.03725,-0.0741 z m -222.63748,0.13964 c 3.93736,-0.022 7.4508,-0.0236 10.58279,0.0172 6.56887,0.0856 23.12847,0.36168 19.25645,1.07065 -3.87201,0.709 -8.4709,0.70213 -12.84276,0.84921 -34.41407,1.15823 -72.76044,2.31059 -104.94515,1.96648 -32.18472,-0.34409 -41.96205,-2.42407 -43.88063,-3.08842 -1.918609,-0.66434 1.0639,-0.58836 1.0639,-0.58836 0,0 45.52923,-0.3446 82.72779,-0.0653 20.59707,0.15464 36.22551,-0.0956 48.03761,-0.16154 z m 272.06862,0.32355 c 0.30787,-0.003 0.59774,-10e-4 0.87042,0.005 v 2.3e-4 c 1.14374,0.0259 4.02398,0.11816 3.31081,0.44663 -0.71322,0.3285 -1.51669,0.33467 -2.28842,0.40981 -6.07444,0.59166 -12.83589,1.18828 -18.44359,1.0956 -5.60766,-0.0927 -7.20975,-1.01498 -7.51094,-1.31192 -0.30124,-0.29692 0.21612,-0.26831 0.21612,-0.26831 0,0 7.97546,-0.24516 14.46283,-0.19162 4.1907,0.0345 7.2277,-0.16739 9.38277,-0.18531 z"
       inkscape:path-effect="#path-effect75" /></g></svg>
