<?xml version="1.0" encoding="UTF-8" standalone="no"?>
<!-- Created with Inkscape (http://www.inkscape.org/) -->

<svg
   width="297.22363mm"
   height="397.40863mm"
   viewBox="0 0 297.22364 397.40862"
   version="1.1"
   id="svg1"
   xml:space="preserve"
   sodipodi:docname="Unnamed document 1"
   xmlns:inkscape="http://www.inkscape.org/namespaces/inkscape"
   xmlns:sodipodi="http://sodipodi.sourceforge.net/DTD/sodipodi-0.dtd"
   xmlns="http://www.w3.org/2000/svg"
   xmlns:svg="http://www.w3.org/2000/svg"><sodipodi:namedview
     id="namedview1"
     pagecolor="#ffffff"
     bordercolor="#000000"
     borderopacity="0.25"
     inkscape:showpageshadow="2"
     inkscape:pageopacity="0.0"
     inkscape:pagecheckerboard="0"
     inkscape:deskcolor="#d1d1d1"
     inkscape:document-units="mm"><inkscape:page
       x="0"
       y="0"
       width="297.22366"
       height="397.40863"
       id="page1"
       margin="0"
       bleed="0"
       inkscape:export-filename="shapeBG.png"
       inkscape:export-xdpi="96"
       inkscape:export-ydpi="96" /></sodipodi:namedview><defs
     id="defs1"><inkscape:path-effect
       effect="bend_path"
       id="path-effect75"
       is_visible="true"
       lpeversion="1"
       bendpath="m 108.1844,-0.33807645 c 0,0 -148.050967,13.72004945 -121.707451,107.84632645 30.088788,107.50826 187.971481,-33.319857 220.763801,66.93911 26.96674,82.44791 -78.30279,117.93809 -162.952759,79.78599 -96.01366,-43.27376 -165.657361,138.94934 32.117246,134.89243"
       prop_scale="0.91470637"
       scale_y_rel="false"
       vertical="false"
       hide_knot="false"
       bendpath-nodetypes="csssc" /></defs><g
     inkscape:label="Layer 1"
     inkscape:groupmode="layer"
     id="layer1"
     transform="translate(67.615253,2.7046102)"><path
       id="path59-2"
       style="fill:#506e86;fill-opacity:1;stroke-width:0.192079;paint-order:stroke fill markers"
       d="m 9.2491533,363.80607 c -8.31099752,-2.98904 -17.1197529,-7.10067 -24.4152373,-13.10379 -6.455681,-5.26146 -12.391309,-12.13192 -15.461718,-20.02957 -2.667142,-6.45909 -3.741892,-14.12609 -2.91005,-21.77221 0.773426,-7.23479 3.330513,-14.64875 7.409156,-21.3574 3.968407,-6.46472 9.380099,-12.27534 15.794667,-16.47462 6.3503458,-4.18636 13.901421,-6.93452 21.546705,-7.58403 8.58943,-0.88247 17.919611,1.08991 26.717608,4.85506 0,0 2.5e-5,10e-6 2.5e-5,10e-6 22.498972,9.94006 46.659336,15.35332 70.799191,16.0339 22.3179,0.73435 44.47241,-2.82078 64.61584,-11.48793 9.33668,-4.033 18.09356,-9.3578 25.84532,-16.00827 7.64564,-6.56211 13.94881,-14.4614 18.52299,-23.27939 4.92711,-9.67498 7.40637,-19.8986 7.90075,-29.73954 0.0208,-0.46161 0.0378,-0.9217 0.0511,-1.38022 0.33322,-11.47407 -1.63806,-22.44983 -4.98433,-32.42674 -2.13951,-6.62895 -5.13855,-13.22102 -9.21039,-19.45666 -3.53629,-5.38782 -7.94852,-10.28696 -13.15514,-14.43118 -4.96509,-3.8956 -10.39736,-6.89946 -16.03538,-9.02568 -5.82335,-2.18167 -11.6692,-3.51466 -17.33829,-4.20993 -12.66547,-1.51456 -24.76747,-0.68358 -35.80374,0.85599 -12.49414,1.67165 -24.60839,4.16466 -35.922014,6.4409 -11.820281,2.3554 -22.867332,4.57352 -33.787571,5.82863 -10.13306,1.09154 -19.534427,1.61026 -28.041647,0.0734 -3.871613,-0.67572 -7.495208,-1.65993 -10.692035,-3.10574 -3.18188,-1.41634 -6.127711,-3.28864 -8.625555,-5.52748 C 9.267585,125.03836 6.8324581,121.89925 4.7539097,118.43453 2.199695,114.18646 0.28825003,109.26935 -1.2654385,104.07766 -3.8199501,95.052979 -4.9668671,86.057103 -3.658186,77.837577 -2.6806133,70.954134 0.01123458,64.230358 3.8566991,58.359696 3.9678479,58.190011 4.0837086,58.01564 4.2043059,57.836958 7.0870116,53.514604 11.909698,47.904604 20.384862,41.579405 c 1e-6,0 4e-6,-3e-6 4e-6,-3e-6 6.261242,-4.642358 13.518265,-8.756621 21.877605,-12.58864 16.077058,-7.357101 32.434707,-11.674618 45.468699,-14.56799 2.612909,-0.57565 4.973516,-1.064927 7.094331,-1.489691 3.629941,-0.727017 6.346899,-1.283219 8.534709,-1.808174 1.98371,-0.475817 3.37931,-0.895563 4.30741,-1.2932084 0,0 1e-5,-5e-7 1e-5,-5e-7 0.48891,-0.2094356 0.83773,-0.4134979 1.07237,-0.613141 0.10834,-0.092168 0.18717,-0.1842222 0.24326,-0.2749787 0,0 0,-6.7e-6 0,-6.7e-6 -0.0215,-0.4811631 -0.044,-0.9130302 -0.0649,-1.284637 -0.63349,-7.62084932 -0.55998,-6.8216411 -0.0631,-0.6627451 0,0 0,1.15e-5 0,1.15e-5 0.0117,0.285364 0.0232,0.6118126 0.0326,0.9725763 -0.0785,-0.1019304 -0.18012,-0.2035432 -0.30827,-0.3038612 -0.30097,-0.2356486 -0.71679,-0.4663776 -1.23946,-0.6915722 -1.20125,-0.5176677 -2.85745,-0.9902478 -4.76162,-1.4360037 0,10e-8 -1e-5,-3e-7 -1e-5,-3e-7 C 99.521341,4.8216404 95.954367,4.2096429 93.173781,3.5872321 90.620765,3.015762 87.979155,2.6234675 85.267896,2.3924337 69.31924,1.0309782 51.627762,5.1660055 34.687609,12.185276 28.82418,14.612814 23.159451,17.364298 17.658772,20.394652 14.661392,22.045926 11.708198,23.82694 8.8160435,25.753018 0.79191615,31.07808 -6.7423509,37.685491 -12.948093,45.821557 c 0,0 -2.1e-5,2.8e-5 -2.1e-5,2.8e-5 -6.237284,8.234923 -10.723521,17.940149 -12.803213,28.421558 0,0 -7e-6,3.6e-5 -7e-6,3.6e-5 -2.316583,12.245211 -1.478082,24.688262 1.466924,36.276901 1.64496,6.7677 4.076618,13.61512 7.616751,20.23395 0,0 1.7e-5,3e-5 1.7e-5,3e-5 2.973252,5.54715 6.839697,10.8065 11.6446912,15.44686 4.42912246,4.22701 9.4879556,7.71456 14.9607961,10.35858 5.4929817,2.63253 11.1737217,4.43623 16.8199917,5.54959 12.317793,2.37972 24.399946,2.26483 35.660653,1.1858 -2e-6,0 3.3e-5,0 3.3e-5,0 12.522564,-1.11916 24.581938,-3.18515 36.228622,-5.23889 -10e-7,0 3.1e-5,0 3.1e-5,0 11.767124,-2.05242 23.136104,-4.14737 34.214934,-5.3701 0,0 3e-5,0 3e-5,0 10.13313,-1.04932 19.67885,-1.64346 28.26187,-0.2903 0,0 3e-5,0 3e-5,0 3.81831,0.58452 7.37196,1.42473 10.47259,2.70162 2.98556,1.21491 5.73663,2.77943 8.01362,4.67203 2.46604,1.98033 4.66798,4.57503 6.56113,7.48711 0,0 1e-5,1e-5 1e-5,1e-5 2.28914,3.48362 4.05567,7.689 5.55304,12.26601 2.39663,7.79971 3.77119,15.54931 3.25679,22.7217 0,0 0,3e-5 0,3e-5 -0.3762,6.08691 -1.93858,12.07241 -4.65434,17.2076 0,0 -10e-6,2e-5 -10e-6,2e-5 -2.61137,5.13017 -6.60143,9.8464 -11.29033,13.91611 0,0 -1e-5,2e-5 -1e-5,2e-5 -5.10057,4.42974 -11.29351,8.0148 -17.97063,10.94607 -15.53359,6.85861 -33.43632,9.17723 -51.23868,8.79593 -20.472413,-0.56531 -40.678206,-5.23317 -59.0668,-13.23718 -9.12689,-4.07452 -19.003919,-6.65145 -29.154305,-7.39733 -4.273933,-0.31406 -8.552051,-0.29792 -12.802772,0.0524 -13.4081651,1.24085 -25.646837,5.93243 -35.785051,12.74889 -10.645392,7.18622 -18.888762,16.43834 -24.696987,26.34489 -6.388663,10.83807 -9.901456,22.51137 -10.87614,33.84516 -1.102646,12.9397 1.304789,25.185 5.977521,35.58898 0,0 1.4e-5,2e-5 1.4e-5,2e-5 6.162383,13.41564 15.679272,23.26227 25.196398,29.90157 15.504338,10.75921 32.03575329,15.13197 44.266149,17.05928 17.588648,2.79971 32.391675,1.80236 41.139435,0.65153 9.279925,-1.22084 15.127057,-3.02132 17.604909,-4.19214 5.731464,-2.70819 5.135937,-5.04659 2.848842,-6.71136 -2.289075,-1.66621 -6.520973,-2.8713 -8.355044,-3.28503 -4.767059,-1.07532 -23.180434,-0.77586 -47.556789,-7.67198 0,0 -4e-6,0 -4e-6,0 -3.035967,-0.8785 -6.175412,-1.87149 -9.3174427,-3.00151 z M -22.805752,350.83322 c 1.133715,1.11048 2.582159,2.45362 4.374125,3.94827 4.616586,3.87281 10.5875864,7.46664 8.221964,6.63877 -3.16453,-1.10745 -6.285554,-3.15886 -9.240625,-5.3663 -0.140566,-0.10435 -0.280576,-0.20882 -0.420123,-0.31338 -7.6019,-5.69563 -14.309057,-13.19198 -18.210903,-22.08555 -3.565801,-7.93475 -4.959223,-16.97274 -4.160826,-25.78457 0.813533,-9.04477 3.90025,-17.70965 8.434015,-25.11282 1.595579,-2.59595 3.363436,-5.02717 5.263847,-7.27221 4.631859,-5.47184 9.499083,-9.16319 13.592557,-11.57103 5.9693674,-3.51981 11.1671625,-4.83346 14.04375951,-5.33164 3.02959339,-0.52468 4.81586779,-0.39779 5.34505219,-0.31717 1.6752307,0.25521 -0.7468282,0.71816 -0.7468282,0.71816 0,0 -7.6698852,1.2185 -17.0262605,7.43385 -6.191415,4.09593 -12.477125,10.14407 -17.436037,18.23198 0,0 -3e-6,0 -3e-6,0 -4.371987,7.1721 -7.222424,15.1762 -8.209264,23.20979 -0.01606,0.1307 -0.03156,0.26119 -0.04651,0.39146 -1.113415,9.60047 0.677342,18.0899 3.376512,24.4319 3.352277,8.15445 8.913774,14.29926 12.845553,18.15049 z M 202.62156,150.08217 c 1.07092,1.3387 2.1129,2.76897 3.11075,4.29174 3.42946,5.24887 6.22441,11.1981 8.35155,17.83522 0,1e-5 0,1e-5 0,1e-5 3.11434,9.5152 5.02684,20.17563 4.42786,31.27486 -0.54444,9.58134 -3.1114,18.7144 -7.30649,26.75204 0,0 0,1e-5 0,1e-5 -4.74292,8.99753 -11.0455,15.88407 -16.96313,20.86879 -10.7515,9.05413 -19.33018,12.35875 -19.33018,12.35875 0,0 -3.60902,1.76992 -2.08626,0.40754 0.0296,-0.0865 0.0958,-0.20135 0.2591,-0.39342 0.53912,-0.63416 1.66122,-1.62639 4.69619,-4.08561 2.1844,-1.77001 8.15436,-6.46754 13.42115,-11.83336 1.87817,-1.91329 3.91265,-4.15642 5.93609,-6.71745 3.20471,-4.05615 6.10102,-8.582 8.38307,-13.5412 3.43334,-7.46758 5.35013,-15.74243 5.57242,-24.20697 0.25788,-9.75645 -1.66116,-19.38091 -4.74342,-28.3545 -0.68121,-1.97746 -1.42622,-3.91158 -2.24351,-5.79243 -1.2481,-2.87212 -2.87929,-5.68728 -3.93299,-8.32795 -0.46196,-1.15771 0.89105,0.23121 2.75378,3.11496 1.95388,3.02488 3.49968,6.21815 4.58855,8.7511 0.22795,0.53026 0.45495,1.08028 0.68056,1.65041 2.36907,5.96884 5.66221,16.60909 5.65567,29.10377 -0.006,3.72229 -0.32484,7.77483 -1.1139,12.02989 -0.85233,4.59626 -2.25177,9.16598 -4.23332,13.57297 -2.69721,5.96155 -6.29113,11.31945 -10.35978,15.98277 3.74074,-3.99079 7.76677,-9.19385 11.03173,-15.63569 2.71137,-5.38717 5.03738,-11.9998 6.122,-19.68992 0.28625,-2.02958 0.47752,-4.08385 0.57043,-6.15373 0.43652,-10.15232 -1.32475,-20.35998 -4.64092,-30.20173 -1.94695,-5.8509 -4.57012,-11.66272 -8.13137,-17.03369 -2.99103,-4.50334 -6.68143,-8.62882 -11.02776,-12.06332 0,0 0,0 0,0 -4.05275,-3.18658 -8.58846,-5.70172 -13.37428,-7.52587 0,0 -1e-5,0 -1e-5,0 -4.88904,-1.85944 -9.96108,-3.02962 -15.03516,-3.69763 0,0 -1e-5,0 -1e-5,0 -11.2504,-1.47037 -22.49624,-0.79308 -33.29726,0.46495 -8.32892,0.95514 -16.56715,2.2675 -24.56622,3.58504 -3.63394,0.59855 -7.353894,1.29144 -10.927168,1.82375 -2.720844,0.40363 -5.347133,0.71661 -7.798093,0.8332 -2.722973,0.12955 1.388605,-0.92653 7.51048,-2.30708 7.261991,-1.64481 14.646051,-3.16429 20.409931,-4.22237 4.81476,-0.88386 9.853,-1.72559 15.02161,-2.42479 10.19573,-1.40951 21.94592,-2.36816 34.05196,-0.88047 5.13731,0.63995 10.48316,1.82715 15.77654,3.82469 4.9442,1.8728 9.79011,4.51836 14.22152,8.01041 3.14674,2.50058 6.01428,5.37218 8.55829,8.55231 z M 40.965863,22.264721 c -0.481759,0.214526 -0.962755,0.430738 -1.442722,0.648611 -6.404003,2.909084 -14.982762,7.142704 -23.17793,13.13974 -0.632201,0.463821 -1.272752,0.9452 -1.918806,1.444177 -6.2881575,4.856642 -11.8160052,10.137502 -16.225409,16.134354 -4e-7,1e-6 -8e-7,2e-6 -1.2e-6,3e-6 -3.8273274,5.182437 -6.2295666,10.146172 -7.7409499,14.079926 -1.4747009,3.838278 -2.0169159,6.316622 -2.0169159,6.316622 0,0 -0.304061,-0.15964 -0.107049,-2.183518 0.151882,-1.560263 0.894547,-6.448277 4.2940156,-12.979621 1.1793684,-2.281659 2.4762206,-4.429756 3.8549654,-6.435435 0,0 2.5e-6,-2e-6 2.5e-6,-2e-6 5.0747448,-7.398622 11.6092317,-13.507376 18.3359885,-18.461592 6.861212,-5.047133 14.694783,-9.454237 23.656109,-13.375252 2.828032,-1.236977 5.796857,-2.439166 8.918251,-3.597839 11.516002,-4.274759 20.951923,-4.911373 20.951923,-4.911373 -8.91741,2.835456 -16.032149,5.441073 -18.920144,6.60285 -2.931939,1.179434 -5.768667,2.379302 -8.461336,3.578332 3e-6,6e-6 5e-6,1.1e-5 8e-6,1.7e-5 z M -46.262262,325.00072 c 0.203903,1.1849 0.619545,3.25883 0.940268,4.87344 0.316614,1.59393 0.516306,2.80249 -0.03439,2.20885 -1.078201,-1.1623 -1.568588,-2.83181 -2.09648,-4.40002 -2.164064,-6.42806 -3.266349,-13.51379 -2.913201,-20.77389 0.332212,-6.82561 1.895158,-13.31917 4.368642,-19.00307 1.879992,-4.32006 3.98131,-7.35189 5.590468,-9.26048 2.7314,-3.24044 4.458418,-3.96339 5.026359,-4.10292 0.907402,-0.22289 0.197457,0.64738 0.197457,0.64738 0,0 -1.301578,1.80071 -3.047973,4.81143 -3.527993,6.08784 -6.905555,13.96755 -8.606607,23.51954 -0.230434,1.29398 -0.401043,2.54374 -0.522831,3.74378 0,0 0,0 0,0 -0.794393,7.81126 0.482542,14.15753 1.098285,17.73596 z M 47.736761,14.672774 c -1.926877,0.781162 -5.905565,2.118799 -10.165755,3.909575 -0.94675,0.397984 -1.90267,0.815496 -2.857481,1.253273 -7.962801,3.650912 -14.92845,7.818911 -20.769002,12.090564 -0.129352,0.0946 -0.26297,0.192901 -0.400542,0.294747 -3.04357,2.253447 -6.4517216,5.068403 -9.9591422,8.464376 -3.1787488,3.077745 -5.487914,5.760796 -5.5639761,5.402059 -0.083383,-0.39324 2.02788409,-3.347435 5.0264106,-6.538381 3.1965493,-3.401676 6.5958246,-6.283892 9.2265607,-8.269252 0.12514,-0.09444 0.250513,-0.188392 0.376112,-0.281861 6.408101,-4.771787 13.6801,-8.531583 21.584716,-12.032684 0.895073,-0.396443 1.876658,-0.822077 2.938559,-1.265362 5.191188,-2.167215 11.706048,-4.351074 11.778486,-3.702642 0.01437,0.128918 -0.430116,0.357465 -1.21493,0.675631 z M -30.482555,259.88574 c -1.992951,1.75261 -3.814798,3.49121 -5.757263,5.43004 -3.618836,3.61219 -5.292215,6.77039 -6.734369,8.60031 -0.372441,0.47244 -1.161612,1.46836 -1.728476,2.05258 -0.527495,0.54252 -0.970562,0.85135 -1.037828,0.38341 -0.05186,-0.36071 -0.02122,-0.68835 0.05559,-0.9955 0.134597,-0.54074 0.411792,-1.01787 0.638269,-1.51106 2.880843,-6.27456 6.918321,-12.3792 12.04054,-16.41821 4.923211,-3.88209 7.613301,-3.1618 8.226689,-2.84909 0.612107,0.31191 0.118031,0.57289 0.118031,0.57289 0,0 -2.684392,1.97646 -5.820974,4.73487 z M 179.84965,246.96382 c -2.98946,2.04041 -5.89143,3.68776 -8.48976,4.98096 -1.54708,0.76998 -3.52568,1.69485 -5.87458,2.65213 -5.84343,2.38611 -13.95713,4.60291 -11.18937,3.18171 3.1581,-1.62166 6.99605,-3.01654 10.543,-4.68566 0.12977,-0.0609 0.25911,-0.1222 0.38798,-0.18378 7.05249,-3.36956 13.80124,-7.60017 19.5361,-12.86149 5.32749,-4.88749 9.81188,-10.59764 12.81722,-16.84939 3.13902,-6.42315 4.77106,-13.53845 5.06396,-20.55042 0.39731,-8.5512 -1.28622,-17.1919 -3.73252,-25.16768 -0.0287,-0.0937 -0.0575,-0.18714 -0.0864,-0.28035 -1.92091,-6.01742 -3.99069,-10.54771 -6.18816,-14.20172 -2.75996,-4.61418 -5.58991,-7.79472 -7.73763,-9.90381 0,0 0,0 0,0 -3.77902,-3.75556 -5.94361,-5.19426 -6.55208,-5.8171 -1.25272,-1.28232 1.06956,-0.0736 1.06956,-0.0736 0,0 2.84111,1.16288 6.77768,4.2562 2.81532,2.19361 6.01241,5.36541 9.00222,9.85248 0,0 0,0 0,0 2.75626,4.1256 5.05909,9.02275 6.96996,14.79458 2.7608,8.48838 4.46764,17.639 3.91759,26.72225 -0.19094,3.29643 -0.6729,6.52708 -1.42047,9.63454 -1.07488,4.46802 -2.62213,8.50989 -4.47259,12.08334 0,0 0,0 0,0 -3.79068,7.39278 -9.0665,13.21079 -13.82151,17.375 -2.20268,1.92928 -4.41292,3.60359 -6.52018,5.04185 z M -55.233175,305.2545 c -0.0415,0.32891 -0.08251,0.63718 -0.123318,0.92822 l -2.09e-4,-2e-5 c 1.56e-4,-0.001 -0.01893,0.13471 -0.01878,0.1336 -0.190333,1.36113 -0.507286,4.08711 -0.72366,3.39462 -0.247647,-0.79255 -0.179265,-1.66855 -0.160209,-2.51336 0.0073,-0.32565 0.01718,-0.65312 0.02968,-0.98234 0.251906,-6.58852 1.506574,-13.12728 3.81967,-18.74494 2.340071,-5.68312 4.102686,-6.75287 4.494271,-6.91379 0.390574,-0.16055 0.109584,0.3199 0.109584,0.3199 0,0 -3.616736,7.74733 -5.553506,14.47829 -1.214798,4.22213 -1.596197,7.72215 -1.873621,9.89981 z"
       inkscape:original-d="m 605.57318,-248.3161 c -103.94868,-0.59496 -308.06812,2.44023 -431.98254,2.58911 -134.32408,0.16139 -248.721911,0.82117 -350.2429,2.37232 -19.66774,0.30051 -87.66687,0.20569 -114.55263,0.83942 -29.9807,0.70668 -9.61765,6.06215 4.7e-4,10.37556 21.66259,9.71495 50.63892,8.59843 76.74395,9.92077 205.4919024,10.40905 426.06062,11.67691 618.77785,8.87319 192.71729,-2.80372 259.16664,-16.20591 270.89723,-22.02901 11.73064,-5.82311 -1.74941,-10.01862 -5.76328,-10.89493 -5.70897,-1.24634 -29.22858,-1.84812 -63.87815,-2.04643 z m -40.79033,5.57613 c 6.56934,0.0311 23.13059,0.16995 19.26463,0.91098 -3.86606,0.74105 -8.46481,0.77244 -12.83531,0.95573 -34.40328,1.44327 -72.73865,2.91322 -104.9251,2.83574 -32.1865,-0.0775 -41.9808,-2.07634 -43.90487,-2.72478 -1.92403,-0.64841 1.0592,-0.59722 1.0592,-0.59722 0,0 45.52472,-0.72177 82.7243,-0.7506 27.46356,-0.0213 46.08818,-0.68923 58.61715,-0.62985 z m -442.16953,4.60245 c 41.19446,-0.0276 123.53911,0.71983 123.53911,0.71983 0,0 3.79492,-0.0684 1.9525,0.57671 -0.06,0.0719 -0.16363,0.15587 -0.38206,0.27017 -1.36185,0.7126 -8.38283,3.1058 -31.89803,4.81737 -23.51522,1.71159 -51.62924,2.26924 -76.86797,2.65205 -3.20626,0.0487 -6.56896,0.25301 -9.44453,-0.25268 -2.87557,-0.50569 9.21727,-1.48024 14.01574,-1.84411 9.15155,-0.69395 22.80719,-1.0085 42.87781,-2.38607 10.50123,-0.72078 21.50775,-1.37125 31.56492,-1.94178 -9.67144,0.14787 -21.18889,0.28604 -37.41798,0.41773 -48.05062,0.3899 -103.779964,1.08762 -155.01569,-0.35992 -6.508837,-0.18389 -13.370791,-0.17988 -19.0811479,-1.04968 -5.7103662,-0.86978 19.0227599,-1.20619 28.8303509,-1.28977 25.312458,-0.21571 53.835672,-0.30742 87.326977,-0.32985 z M -234.316,-235.761 c 9.30372,-0.0383 18.44632,0.0923 32.20224,0.0825 22.55979,-0.0161 49.39848,1.19467 49.39848,1.19467 0,0 -0.43907,1.28091 -16.81116,1.37439 -26.31449,0.2275 -44.93056,0.46312 -72.99793,-0.0193 -12.51482,-0.21513 -22.02132,-2.09726 -22.02132,-2.09726 10.90292,-0.42557 16.18742,-0.34496 20.69541,-0.42892 3.31389,-0.0617 6.43304,-0.0933 9.53428,-0.10606 z m 759.79946,2.23129 c 2.55618,0.0311 9.00047,0.17019 7.49623,0.91121 -1.50433,0.74106 -3.29371,0.77222 -4.99431,0.95551 -13.38659,1.44327 -28.3034,2.91344 -40.82736,2.83597 -12.52406,-0.0775 -16.33499,-2.07635 -17.08371,-2.72478 -0.74862,-0.64842 0.41194,-0.59722 0.41194,-0.59722 0,0 17.71423,-0.72178 32.18893,-0.7506 10.68632,-0.0213 17.93315,-0.68947 22.80828,-0.63009 z m -769.18478,2.63597 c 2.57469,-0.0543 8.34541,0.31079 14.18428,0.38719 7.87963,0.1031 17.99333,0.0539 24.35168,0.0207 6.47385,-0.0337 22.05345,-0.30411 21.58564,0.34476 -0.4796,0.66524 -14.64784,1.22933 -20.61335,1.30329 -8.25987,0.10242 -16.26724,-0.3371 -25.26313,-0.58509 -5.77503,-0.15921 -15.83326,-0.41836 -15.63863,-1.25062 0.0322,-0.13756 0.53527,-0.20218 1.39351,-0.22028 z m 699.91911,6.30855 c 2.35247,0.0115 4.99449,0.0632 7.42653,0.20001 4.78803,0.26925 8.07471,-0.20044 10.25481,-0.009 1.14311,0.10057 4.02137,0.41431 3.30265,1.11308 -0.71872,0.69879 -1.52225,0.68148 -2.29514,0.8182 -6.08374,1.07668 -12.85443,2.13839 -18.4597,1.72056 -5.60527,-0.41782 -7.19116,-2.51664 -7.48712,-3.18423 -0.29609,-0.66758 0.22072,-0.58487 0.22072,-0.58487 0,0 3.11648,-0.0932 7.03725,-0.0741 z m -222.63748,0.13964 c 3.93736,-0.022 7.4508,-0.0236 10.58279,0.0172 6.56887,0.0856 23.12847,0.36168 19.25645,1.07065 -3.87201,0.709 -8.4709,0.70213 -12.84276,0.84921 -34.41407,1.15823 -72.76044,2.31059 -104.94515,1.96648 -32.18472,-0.34409 -41.96205,-2.42407 -43.88063,-3.08842 -1.918609,-0.66434 1.0639,-0.58836 1.0639,-0.58836 0,0 45.52923,-0.3446 82.72779,-0.0653 20.59707,0.15464 36.22551,-0.0956 48.03761,-0.16154 z m 272.06862,0.32355 c 0.30787,-0.003 0.59774,-10e-4 0.87042,0.005 v 2.3e-4 c 1.14374,0.0259 4.02398,0.11816 3.31081,0.44663 -0.71322,0.3285 -1.51669,0.33467 -2.28842,0.40981 -6.07444,0.59166 -12.83589,1.18828 -18.44359,1.0956 -5.60766,-0.0927 -7.20975,-1.01498 -7.51094,-1.31192 -0.30124,-0.29692 0.21612,-0.26831 0.21612,-0.26831 0,0 7.97546,-0.24516 14.46283,-0.19162 4.1907,0.0345 7.2277,-0.16739 9.38277,-0.18531 z"
       inkscape:path-effect="#path-effect75" /></g></svg>
