<?xml version="1.0" encoding="UTF-8" standalone="no"?>
<svg
   version="1.1"
   viewBox="-5 -10 91.271942 93.172821"
   id="svg2"
   sodipodi:docname="noun-internet-6990766.svg"
   width="91.271942"
   height="93.172821"
   inkscape:export-filename="..\Desktop\internet-icon.svg"
   inkscape:export-xdpi="96"
   inkscape:export-ydpi="96"
   xmlns:inkscape="http://www.inkscape.org/namespaces/inkscape"
   xmlns:sodipodi="http://sodipodi.sourceforge.net/DTD/sodipodi-0.dtd"
   xmlns="http://www.w3.org/2000/svg"
   xmlns:svg="http://www.w3.org/2000/svg">
  <defs
     id="defs2" />
  <sodipodi:namedview
     id="namedview2"
     pagecolor="#ffffff"
     bordercolor="#000000"
     borderopacity="0.25"
     inkscape:showpageshadow="2"
     inkscape:pageopacity="0.0"
     inkscape:pagecheckerboard="0"
     inkscape:deskcolor="#d1d1d1"
     inkscape:export-bgcolor="#ffffff00" />
  <path
     d="M 35.625,-10 C 13.203044,-10 -5,8.2030448 -5,30.625 -5,53.046956 13.203044,71.25 35.625,71.25 c 2.183596,0 4.328079,-0.171873 6.421875,-0.507813 0,0 0.607976,-0.117925 1.402344,-0.314453 -0.05284,-0.171727 -0.112934,-0.338129 -0.158203,-0.515625 -0.35033,-1.373613 -0.32992,-2.080355 -0.41211,-3.363281 -0.08219,-1.282926 -0.147822,-2.844671 -0.201172,-4.615234 -0.02565,-0.851081 -0.04013,-1.861481 -0.06055,-2.794922 -1.178622,1.87485 -2.689259,3.677001 -4.644531,5.166015 C 37.234361,64.753907 36.453118,65 35.625,65 33.086006,65 31.019485,62.687536 29.117187,59.339844 27.187591,55.94515 25.632848,51.45309 24.59375,46.25 l 17.886719,0.253906 c -0.0071,-2.325181 -0.012,-4.564397 -0.0039,-6.517578 C 39.933893,40.101602 36.552882,40.17123 32.195312,40 h -8.5625 C 23.300784,37.011706 23.125,33.867194 23.125,30.625 c 0,-3.242194 0.175784,-6.386706 0.507812,-9.375 h 23.984375 c 0.183407,1.656722 0.30318,3.374001 0.388672,5.117187 0.420954,-0.07313 0.918821,-0.128205 1.421875,-0.09375 1.092502,0.07483 1.786475,0.360468 2.404297,0.615235 0.642456,0.264923 1.341837,0.596417 2.232422,1.039062 -0.02263,-2.939181 -0.06272,-5.645533 -0.169922,-6.677734 h 14.808594 c 0.843778,2.980494 1.353425,6.125498 1.296875,9.375 -0.04601,2.643841 -0.10873,4.334996 -0.175781,5.605469 0.602837,0.312671 1.204059,0.634546 1.802734,0.9375 1.506672,0.762436 2.77792,1.441247 3.890625,2.05664 0.07878,-0.665496 0.153117,-1.385658 0.224609,-2.177734 C 76.078117,34.953079 76.25,32.808596 76.25,30.625 76.25,8.2030448 58.046956,-10 35.625,-10 Z m 0,6.2480469 c 2.538994,0 4.605516,2.312463 6.507812,5.6601562 1.929598,3.3946932 3.48434,7.8867541 4.523438,13.0898439 H 24.59375 C 25.632748,9.7947572 27.187491,5.3026963 29.117187,1.9082031 31.019485,-1.4394901 33.086006,-3.7519531 35.625,-3.7519531 Z m -11.617188,2.015625 v 0.00195 h -0.002 c 0,0 0,0.00195 0,0.00195 -0.108627,0.1785807 -0.217541,0.3645493 -0.326172,0.5507813 C 21.33594,2.9433542 19.441398,8.5214598 18.25,14.998047 H 5.0039062 C 8.9605174,7.2726062 15.753053,1.2366772 24.005859,-1.7324219 c 0,0 0,-0.00195 0,-0.00195 h 0.002 z m 23.234375,0.00195 C 55.496171,1.2336159 62.289102,7.271459 66.246094,14.998044 L 53,15 C 51.808602,8.523113 49.914108,2.9453043 47.570312,-1.1796875 47.460944,-1.3671871 47.351557,-1.5546854 47.242187,-1.734375 Z M 2.546875,21.248047 h 14.808594 c -0.31641,3.003894 -0.480469,6.144506 -0.480469,9.375 0,3.230494 0.164059,6.371106 0.480469,9.375 H 2.546875 C 1.7030966,37.017553 1.25,33.873041 1.25,30.623047 c 0,-3.249994 0.4531266,-6.394506 1.296875,-9.375 z m 2.4570312,25 H 18.25 c 1.191398,6.476886 3.085893,12.054696 5.429687,16.179687 0.10937,0.1875 0.218757,0.374998 0.328125,0.554688 C 15.75383,60.014428 8.9608984,53.974631 5.0039062,46.248047 Z"
     style="display:inline;fill:#263440;fill-opacity:1;fill-rule:evenodd"
     id="path45" />
  <path
     d="m 49.427734,26.273437 c -1.092503,-0.07483 -2.203202,0.259255 -2.412109,0.328125 -1.929638,0.636146 -3.941079,3.237064 -4.3125,4.878907 -0.204257,0.902883 -0.11859,0.786325 -0.128906,0.947265 -0.01032,0.160942 -0.01732,0.306342 -0.02344,0.472657 -0.01224,0.332628 -0.02195,0.737763 -0.03125,1.234375 -0.0186,0.993222 -0.03252,2.33641 -0.04297,3.933593 -0.02091,3.194367 -0.02336,7.393383 0.0059,11.677735 0.02918,4.284351 0.08861,8.646364 0.195312,12.1875 0.05335,1.770567 0.118983,3.332306 0.201172,4.615234 0.08219,1.282928 0.06178,1.989664 0.41211,3.363281 0.681597,2.672462 2.200625,4.704057 5.171875,5.707032 1.673704,0.564984 5.462428,0.864041 8.402343,-1.785157 0.843281,-0.759889 1.125969,-1.159223 1.78711,-1.904297 0.480751,-0.541783 1.040841,-1.171265 1.58789,-1.785156 1.024201,1.445029 2.084604,2.942263 3.306641,4.78711 0.859032,1.296836 1.679311,2.534138 2.394531,3.560546 0.357611,0.513206 0.685435,0.970089 1.017578,1.398438 0.332145,0.428349 0.454685,0.729987 1.404297,1.486328 2.190192,1.744429 5.272651,2.218498 8.164063,1.419922 1.515219,-0.418487 3.73426,-1.264433 5.466797,-3.095703 0.798554,-0.844063 1.72449,-2.05052 2.166015,-3.851563 0.441526,-1.801041 0.100129,-4.130042 -0.955078,-5.878906 -0.590825,-0.979214 -2.752047,-4.434124 -4.880859,-7.980469 -0.635236,-1.058225 -1.13477,-1.94177 -1.691407,-2.902343 0.326843,-0.08664 0.789681,-0.261683 1.009766,-0.296875 0.952614,-0.152327 2.21982,-0.32747 3.732422,-1.027344 1.512602,-0.699874 3.206852,-2.152558 4.128906,-3.998047 2.0014,-4.005955 -0.145336,-8.943671 -3.671912,-10.853516 C 79.992274,41.915776 77.442587,40.110913 71.626953,37.167969 66.17145,34.407266 60.380436,31.121797 57.21875,29.521484 54.404447,28.097 53.067681,27.398205 51.832031,26.888672 51.214207,26.633905 50.520238,26.348263 49.427734,26.273437 Z m -0.341797,4.988282 c 0.575578,0.03942 1.654777,0.584599 5.875,2.720703 2.868539,1.451933 8.80237,4.809708 14.408204,7.646484 5.605833,2.836777 7.822941,4.456262 10.082031,5.679688 1.640002,0.888156 2.365454,2.646815 1.578125,4.222656 -0.849142,1.699556 -2.439367,2.044607 -4.175781,2.322266 -0.800914,0.128068 -1.674625,0.368741 -2.521485,0.638671 0.07681,0.169654 0.137022,0.477767 0.208985,0.935547 -0.08032,-0.324337 -0.129268,-0.705981 -0.210938,-0.935547 -1.876884,0.598378 -3.608416,1.358348 -4.03125,1.480469 -1.027026,0.296621 -0.552257,0.08014 -0.513672,0.765625 0.07378,1.310736 8.216521,14.286111 9.138672,15.814453 0.931707,1.54418 0.268317,2.834727 -0.5625,3.712891 -0.913166,0.965206 -1.958018,1.377302 -3.166016,1.710937 -1.637645,0.4523 -2.924926,0.120938 -3.716796,-0.509765 -1.048847,-0.835379 -6.093824,-9.156702 -8.675782,-12.386719 -0.512377,-0.640982 -1.542144,-2.402201 -2.080078,-2.361328 -0.944777,0.07179 -6.25279,6.542272 -7.205078,7.400391 -1.370386,1.234872 -2.82844,0.975862 -3.457031,0.763671 -0.891334,-0.300878 -1.672259,-1.218704 -1.923828,-2.205078 -0.824927,-3.234456 -0.735004,-35.305327 -0.556641,-36.09375 0.155765,-0.688548 0.450088,-1.051132 1,-1.232422 0.177821,-0.05862 0.314,-0.102984 0.505859,-0.08984 z"
     style="display:none;fill:#ffffff;stroke-linecap:round;stroke-linejoin:round;paint-order:stroke fill markers"
     id="path15-2"
     inkscape:label="arrow stroke"
     sodipodi:insensitive="true" />
  <path
     style="color:#000000;display:inline;fill:#263440;fill-opacity:1;stroke-linecap:round;stroke-linejoin:round;-inkscape-stroke:none;paint-order:stroke fill markers"
     d="m 71.455097,77.331557 c -1.048848,-0.83538 -6.092589,-9.157583 -8.674549,-12.387603 -0.512378,-0.640983 -1.541977,-2.400419 -2.079911,-2.359546 -0.944778,0.07179 -6.253115,6.542114 -7.205404,7.400233 -1.370387,1.234874 -2.828073,0.974524 -3.456665,0.762333 -0.891335,-0.300879 -1.673879,-1.218926 -1.925449,-2.205301 -0.824928,-3.23446 -0.733812,-35.304922 -0.555449,-36.093345 0.155765,-0.688549 0.450049,-1.051283 0.999962,-1.232573 0.711286,-0.234492 0.753028,-0.217279 6.379998,2.630863 2.868541,1.451935 8.803328,4.811064 14.409167,7.647843 5.605839,2.83678 7.822704,4.455316 10.081796,5.678743 1.640004,0.888157 1.811316,3.214866 1.172688,4.113095 -0.899339,1.26492 -1.677788,1.604489 -3.770438,2.432354 -2.42638,0.959891 -5.962411,1.879979 -6.554658,2.119448 -0.419357,0.169563 -0.701359,0.450166 -0.513619,0.765528 0.671548,1.128051 8.216845,14.28611 9.138997,15.814454 0.931708,1.544181 0.268157,2.833948 -0.562661,3.712113 -0.913167,0.965207 -1.958038,1.378106 -3.166037,1.711742 -1.637647,0.4523 -2.925897,0.120323 -3.717768,-0.510381 z"
     id="path11-6"
     inkscape:label="arrow"
     sodipodi:nodetypes="sssssssssssssssssss" />
</svg>
